<svg xmlns="http://www.w3.org/2000/svg" width="33.572" height="10.178" viewBox="0 0 33.572 10.178"><defs><style>.a{fill:#3c58bf;}.b{fill:#293688;}.c{fill:#ffbc00;}.d{fill:#f7981d;}.e{fill:#ed7c00;}.f{fill:#051244;}</style></defs><g transform="translate(0)"><path class="a" d="M244.441,253.538l1.705-9.592h2.664l-1.652,9.592Z" transform="translate(-232.131 -243.626)"/><path class="b" d="M244.441,253.538l2.185-9.592h2.185l-1.652,9.592Z" transform="translate(-232.131 -243.626)"/><path class="a" d="M259.7,243.832a6.756,6.756,0,0,0-2.451-.426c-2.665,0-4.583,1.332-4.583,3.251,0,1.439,1.332,2.185,2.4,2.665s1.386.8,1.386,1.226c0,.639-.853.959-1.6.959a5.792,5.792,0,0,1-2.558-.533l-.373-.16L251.55,253a8.641,8.641,0,0,0,3.037.533c2.825,0,4.69-1.332,4.69-3.357,0-1.119-.692-1.972-2.291-2.665-.959-.48-1.546-.746-1.546-1.226,0-.426.48-.852,1.546-.852a4.883,4.883,0,0,1,2.025.373l.266.107.426-2.079Z" transform="translate(-235.03 -243.406)"/><path class="b" d="M259.7,243.832a6.756,6.756,0,0,0-2.451-.426c-2.665,0-4.1,1.332-4.1,3.251a2.786,2.786,0,0,0,1.918,2.665c1.066.48,1.386.8,1.386,1.226,0,.639-.853.959-1.6.959a5.792,5.792,0,0,1-2.558-.533l-.373-.16L251.55,253a8.641,8.641,0,0,0,3.037.533c2.825,0,4.69-1.332,4.69-3.357,0-1.119-.692-1.972-2.291-2.665-.959-.48-1.546-.746-1.546-1.226,0-.426.48-.852,1.546-.852a4.883,4.883,0,0,1,2.025.373l.266.107.426-2.079Z" transform="translate(-235.03 -243.406)"/><path class="a" d="M269.351,243.946c-.639,0-1.119.053-1.385.693l-4,8.9h2.877l.533-1.6h3.41l.32,1.6h2.558l-2.238-9.592Zm-1.225,6.4c.16-.48,1.065-2.825,1.065-2.825s.213-.586.373-.959l.16.906s.533,2.4.64,2.931h-2.238Z" transform="translate(-240.095 -243.626)"/><path class="b" d="M269.99,243.946c-.64,0-1.119.053-1.385.693l-4.636,8.9h2.877l.533-1.6h3.41l.32,1.6h2.558l-2.238-9.592Zm-1.865,6.4c.213-.533,1.065-2.825,1.065-2.825s.213-.586.373-.959l.16.906s.533,2.4.64,2.931h-2.238Z" transform="translate(-240.095 -243.626)"/><path class="a" d="M233.41,250.7l-.266-1.386a7.726,7.726,0,0,0-3.73-4.21l2.4,8.526h2.878l4.316-9.592h-2.878Z" transform="translate(-226.003 -243.663)"/><path class="b" d="M233.41,250.7l-.266-1.386a7.726,7.726,0,0,0-3.73-4.21l2.4,8.526h2.878l4.316-9.592H236.66Z" transform="translate(-226.003 -243.663)"/><path class="c" d="M223.654,243.946l.479.107c3.411.8,5.755,2.824,6.662,5.223l-.959-4.53c-.16-.64-.64-.8-1.226-.8Z" transform="translate(-223.654 -243.626)"/><path class="d" d="M223.654,243.946h0c3.41.8,6.235,2.877,7.141,5.276l-.906-3.783a1.3,1.3,0,0,0-1.279-1.013Z" transform="translate(-223.654 -243.626)"/><path class="e" d="M223.654,243.946h0c3.41.8,6.235,2.877,7.141,5.276l-.64-2.079a1.879,1.879,0,0,0-1.119-1.545Z" transform="translate(-223.654 -243.626)"/><g transform="translate(3.464 1.386)"><path class="f" d="M236.111,251.075l-1.811-1.812-.853,2.025-.213-1.332a7.726,7.726,0,0,0-3.73-4.21l2.4,8.526h2.878Z" transform="translate(-229.503 -245.746)"/><path class="f" d="M247.159,258.529l-2.291-2.345-.426,2.345Z" transform="translate(-235.595 -250.003)"/><path class="f" d="M256.186,254.565h0c.213.213.32.373.266.586,0,.639-.853.959-1.6.959a5.792,5.792,0,0,1-2.558-.533l-.373-.16-.373,2.185a8.641,8.641,0,0,0,3.037.533,5.277,5.277,0,0,0,3.891-1.332Z" transform="translate(-238.494 -249.342)"/><path class="f" d="M264.6,255.336h2.5l.533-1.6h3.41l.32,1.6h2.558l-.905-3.89-3.2-3.091.16.853s.533,2.4.64,2.931h-2.238c.213-.533,1.065-2.825,1.065-2.825s.213-.586.373-.959" transform="translate(-243.815 -246.81)"/></g></g></svg>